<!DOCTYPE svg PUBLIC "-//W3C//DTD SVG 1.1//EN" "http://www.w3.org/Graphics/SVG/1.1/DTD/svg11.dtd">
<!-- Uploaded to: SVG Repo, www.svgrepo.com, Transformed by: SVG Repo Mixer Tools -->
<svg height="800px" width="800px" version="1.1" id="Layer_1" xmlns="http://www.w3.org/2000/svg" xmlns:xlink="http://www.w3.org/1999/xlink" viewBox="0 0 512 512" xml:space="preserve" fill="#000000">
<g id="SVGRepo_bgCarrier" stroke-width="0"/>
<g id="SVGRepo_tracerCarrier" stroke-linecap="round" stroke-linejoin="round"/>
<g id="SVGRepo_iconCarrier"> <g> <circle style="fill:#4745a4;" cx="256" cy="256" r="256"/> <circle style="fill:#FDF35A;" cx="256" cy="256" r="150.907"/> <path style="fill:#F7BF00;" d="M256,105.093v301.819c83.343,0,150.907-67.564,150.907-150.907 C406.907,172.657,339.343,105.093,256,105.093z"/> <path style="fill:#335872;" d="M255.171,226.243c-17.413,0-31.534,14.116-31.534,31.534s14.116,31.534,31.534,31.534 s31.534-14.116,31.534-31.534S272.584,226.243,255.171,226.243z M233.144,294.63l-43.351,74.02 c41.82,24.146,91.525,22.205,130.335-0.727l-42.931-73.293c-6.446,3.861-13.962,6.124-22.026,6.124S239.596,298.491,233.144,294.63 z M234.25,220.252l-44.457-78.07c-41.82,24.146-64.993,68.157-64.538,113.234l87.004,1.07 C212.726,240.896,221.455,227.4,234.25,220.252z M385.92,255.416c0-48.292-26.532-90.363-65.792-112.512l-44.037,77.348 c12.795,7.148,21.53,20.644,21.99,36.234L385.92,255.416z"/> <path style="fill:#153040;" d="M277.197,294.63c-6.446,3.861-13.962,6.124-22.026,6.124v85.171 c22.82-0.174,45.286-6.38,64.957-18.002L277.197,294.63z M255.171,226.243v63.068c17.413,0,31.534-14.116,31.534-31.534 S272.584,226.243,255.171,226.243z M385.92,255.416c0-48.292-26.532-90.363-65.792-112.512l-44.037,77.348 c12.795,7.148,21.53,20.644,21.99,36.234L385.92,255.416z"/> </g> </g>
</svg>