<svg version="1.2" xmlns="http://www.w3.org/2000/svg" viewBox="0 0 48 48" width="48" height="48">
	<title>icon-purse</title>
	<style>
		.s0 { fill: none;stroke: #dedede } 
		.s1 { fill: #6c6ab6 } 
		.s2 { opacity: .8;fill: #ffffff } 
		.s3 { fill: #ffffff } 
	</style>
	<path fill-rule="evenodd" class="s0" d="m24 0.5c13 0 23.5 10.5 23.5 23.5 0 13-10.5 23.5-23.5 23.5-13 0-23.5-10.5-23.5-23.5 0-13 10.5-23.5 23.5-23.5z"/>
	<path class="s1" d="m32.1 26.1c-0.6 0.5-0.9 1.3-0.8 2.1 0.1 1.5 1.4 2.5 2.8 2.5h2.6v1.6c0 2.8-2.3 5-5 5h-15.4c-2.7 0-5-2.2-5-5v-9c0-2.7 2.3-5 5-5h15.4c2.7 0 5 2.3 5 5v2h-2.7c-0.8 0-1.5 0.3-1.9 0.8z"/>
	<path class="s2" d="m27.8 13.3v5h-11.5c-2.7 0-5 2.3-5 5v-4.8c0-1.6 1-3 2.5-3.6l10.6-4c1.6-0.6 3.4 0.6 3.4 2.4z"/>
	<path class="s2" d="m38.1 26.6v2.8c0 0.7-0.6 1.3-1.4 1.3h-2.6c-1.4 0-2.7-1-2.8-2.5-0.1-0.8 0.2-1.6 0.8-2.1 0.4-0.5 1.1-0.8 1.9-0.8h2.7c0.8 0 1.4 0.6 1.4 1.3z"/>
	<path class="s3" d="m26.7 25h-9.4c-0.5 0-1-0.5-1-1 0-0.5 0.5-1 1-1h9.4c0.5 0 1 0.5 1 1 0 0.5-0.5 1-1 1z"/>
</svg>