<svg width="48" height="48" viewBox="0 0 48 48" fill="none" xmlns="http://www.w3.org/2000/svg">
<rect x="0.5" y="0.5" width="47" height="47" rx="23.5" stroke="#DEDEDE" stroke-opacity="0.2"/>
<path opacity="0.2" d="M32.0535 26.0667C31.4935 26.6134 31.1735 27.4 31.2535 28.24C31.3735 29.68 32.6935 30.7334 34.1335 30.7334H36.6668V32.32C36.6668 35.08 34.4135 37.3334 31.6535 37.3334H16.3468C13.5868 37.3334 11.3335 35.08 11.3335 32.32V23.3467C11.3335 20.5867 13.5868 18.3334 16.3468 18.3334H31.6535C34.4135 18.3334 36.6668 20.5867 36.6668 23.3467V25.2667H33.9735C33.2268 25.2667 32.5468 25.56 32.0535 26.0667Z" fill="white"/>
<path opacity="0.8" d="M27.8002 13.2667V18.3334H16.3468C13.5868 18.3334 11.3335 20.5867 11.3335 23.3467V18.4534C11.3335 16.8667 12.3068 15.4533 13.7868 14.8933L24.3735 10.8933C26.0268 10.28 27.8002 11.4934 27.8002 13.2667Z" fill="white"/>
<path opacity="0.8" d="M38.08 26.6267V29.3734C38.08 30.1067 37.4934 30.7067 36.7467 30.7334H34.1334C32.6934 30.7334 31.3734 29.68 31.2534 28.24C31.1734 27.4 31.4934 26.6134 32.0534 26.0667C32.5467 25.56 33.2267 25.2667 33.9734 25.2667H36.7467C37.4934 25.2934 38.08 25.8933 38.08 26.6267Z" fill="white"/>
<path d="M26.6668 25H17.3335C16.7868 25 16.3335 24.5467 16.3335 24C16.3335 23.4533 16.7868 23 17.3335 23H26.6668C27.2135 23 27.6668 23.4533 27.6668 24C27.6668 24.5467 27.2135 25 26.6668 25Z" fill="white"/>
</svg>
