<svg width="48" height="49" viewBox="0 0 48 49" fill="none" xmlns="http://www.w3.org/2000/svg">
<rect x="0.5" y="1" width="47" height="47" rx="23.5" stroke="#EEEEEE"/>
<path d="M30.6934 36.8866L26.0534 34.5666C24.76 33.9266 23.2534 33.9266 21.96 34.5666L17.32 36.8866C13.3334 38.8733 9.13338 34.5933 11.2134 30.6599L12.3067 28.6066C12.4534 28.3266 12.6934 28.0999 12.9867 27.9666L29.84 20.3666C30.5334 20.0599 31.3467 20.3399 31.6934 21.0066L36.7734 30.6599C38.8534 34.5933 34.6667 38.8733 30.6934 36.8866Z" fill="#F9BA33"/>
<path opacity="0.4" d="M28.8001 18.7533L17.7601 23.7267C16.5201 24.2867 15.2668 22.9533 15.9068 21.7533L19.9601 14.06C21.6801 10.7933 26.3468 10.7933 28.0668 14.06L29.4934 16.78C29.8668 17.5133 29.5468 18.42 28.8001 18.7533Z" fill="#F9BA33"/>
</svg>
