<svg width="49" height="49" viewBox="0 0 49 49" fill="none" xmlns="http://www.w3.org/2000/svg">
<rect x="1" y="1" width="47" height="47" rx="23.5" stroke="#EEEEEE"/>
<path d="M31.1935 12.1266L26.5535 14.4466C25.2601 15.0866 23.7535 15.0866 22.4601 14.4466L17.8068 12.1133C13.8335 10.1266 9.63346 14.42 11.7135 18.3533L12.8068 20.4066C12.9535 20.6866 13.1935 20.9133 13.4868 21.0466L30.3535 28.6333C31.0468 28.94 31.8601 28.66 32.2068 27.9933L37.2868 18.34C39.3535 14.42 35.1668 10.1266 31.1935 12.1266Z" fill="#1775E4"/>
<path opacity="0.4" d="M29.3001 30.2466L18.2601 25.2733C17.0201 24.7133 15.7668 26.0466 16.4068 27.2466L20.4601 34.94C22.1801 38.2066 26.8468 38.2066 28.5668 34.94L29.9934 32.22C30.3668 31.4866 30.0468 30.5933 29.3001 30.2466Z" fill="#1775E4"/>
</svg>
